<?xml version="1.0" encoding="UTF-8" standalone="no"?>
<svg xmlns="http://www.w3.org/2000/svg" version="1.1" viewBox="0 0 139 24" height="24" width="139">
  <rect y="2" x="2" height="20" width="20" fill="#fff" />
  <path d="M32.367 2.4h-4.275v19.557h2.682V8.127l2.291 13.83h2.906l2.123-14.025v14.025H41V2.4h-4.275L34.63 16.285 32.367 2.4zm14.62 2.793h5.309V2.4h-8.382v19.557h8.382v-2.794h-5.309v-5.727h4.219v-2.794h-4.219V5.193zM59.121 2.4h-4.275v19.557h2.682V8.127l2.291 13.83h2.906l2.123-14.025v14.025h2.906V2.4H63.48l-2.095 13.885L59.12 2.4zm11.156 4.693c0 5.588 6.007 6.343 6.007 10.366 0 1.397-.615 1.9-1.593 1.9s-1.592-.503-1.592-1.9v-1.397h-2.906v1.201c0 3.13 1.564 4.918 4.582 4.918 3.017 0 4.582-1.788 4.582-4.918 0-5.588-6.007-6.342-6.007-10.365 0-1.397.559-1.928 1.537-1.928.978 0 1.536.53 1.536 1.928v.81h2.906v-.615c0-3.129-1.537-4.917-4.526-4.917-2.99 0-4.526 1.788-4.526 4.917zm14.34-.195v10.56c0 1.398.615 1.929 1.593 1.929s1.593-.531 1.593-1.928V6.898c0-1.397-.615-1.928-1.593-1.928s-1.592.53-1.592 1.928zm-3.073 10.365V7.093c0-3.129 1.649-4.917 4.666-4.917 3.018 0 4.666 1.788 4.666 4.917v10.17c0 3.13-1.648 4.918-4.666 4.918-3.017 0-4.666-1.788-4.666-4.918zM93.4 2.4V17.29c0 3.13 1.564 4.918 4.582 4.918 3.017 0 4.582-1.789 4.582-4.918V2.4h-2.906v15.087c0 1.397-.615 1.9-1.593 1.9-.977 0-1.592-.503-1.592-1.9V2.4h-3.073zm21.493 19.557h-3.13c-.167-.503-.279-.81-.279-2.403v-3.073c0-1.816-.614-2.487-2.011-2.487h-1.062v7.963h-3.073V2.4h4.638c3.185 0 4.554 1.48 4.554 4.498v1.536c0 2.012-.643 3.325-2.012 3.968 1.537.642 2.04 2.123 2.04 4.163v3.017c0 .95.028 1.649.335 2.375zm-5.001-16.764h-1.48V11.2h1.2c1.146 0 1.845-.502 1.845-2.067V7.205c0-1.397-.475-2.012-1.565-2.012zm13.363 9.472v2.794c0 1.397-.615 1.9-1.593 1.9-.977 0-1.592-.503-1.592-1.9V6.898c0-1.397.615-1.928 1.592-1.928.978 0 1.593.53 1.593 1.928v2.095h2.906v-1.9c0-3.129-1.565-4.917-4.582-4.917-3.018 0-4.582 1.788-4.582 4.917v10.17c0 3.13 1.564 4.918 4.582 4.918 3.017 0 4.582-1.788 4.582-4.918v-2.598h-2.906zm8.53-9.472h5.308V2.4h-8.382v19.557h8.382v-2.794h-5.309v-5.727h4.22v-2.794h-4.22V5.193z" fill="#FFF" />
  <path d="M19.908 2H22v20H2V2h8.684l-2.85 5.596c.58 1.025 1.707 2.063 3.179 2.813 1.471.75 2.974 1.05 4.145.917L19.908 2zM6.76 10.967l.368 7 5.88-3.818c-.999.113-2.28-.143-3.536-.783-1.255-.64-2.216-1.524-2.712-2.399z" fill="#17B7FF" />
</svg>
